<svg width="64" height="64" viewBox="0 0 136 151" fill="none" xmlns="http://www.w3.org/2000/svg">
<path d="M129.674 33.5366L73.6106 1.54929C69.9998 -0.516429 65.502 -0.516429 61.8912 1.54929L5.82803 33.5366C2.21719 35.6023 0 39.4207 0 43.5522V107.527C0 111.658 2.21719 115.477 5.82803 117.542L35.8551 134.694L35.9818 134.381C38.7057 128.747 38.6424 122.237 35.8551 116.603L15.7737 105.148V45.8683L67.7192 16.2597L119.665 45.8683V105.148L75.6377 130.25V109.217C75.6377 109.217 75.8278 109.217 75.9545 109.217C88.7508 109.217 100.344 100.453 103.194 87.5582C103.321 86.8696 102.751 86.0558 102.054 85.868C94.7689 84.3031 87.2938 85.6177 81.0857 89.5613C79.0585 90.8758 77.2848 92.5034 75.6377 94.1935V46.3691H69.6197C64.2351 46.3691 59.8007 50.6883 59.8007 56.0717V72.7852C58.1536 70.7821 56.3799 68.9041 54.1627 67.3392C48.0813 63.0826 40.7329 61.455 33.3211 62.6444C32.6243 62.7696 32.0542 63.646 32.1809 64.2719C33.4478 71.5332 37.4388 77.8556 43.5202 82.1122C48.2713 85.4299 53.846 87.1826 59.5473 87.1826C59.6106 87.1826 59.674 87.1826 59.8007 87.1826V145.81C59.8007 147.297 60.5989 148.669 61.8912 149.404V149.404C65.502 151.47 69.9998 151.47 73.6106 149.404L75.7011 148.215L129.674 117.417C133.285 115.351 135.502 111.533 135.502 107.402V43.5522C135.502 39.4207 133.285 35.6023 129.674 33.5366Z" fill="#B3F14F"/>
</svg>
